<svg xmlns="http://www.w3.org/2000/svg" viewBox="0 0 133.91 133.92"><defs><style>.cls-1{fill:red;}</style></defs><title>Asset 21</title><g id="Layer_2" data-name="Layer 2"><g id="Layer_1-2" data-name="Layer 1"><path class="cls-1" d="M68.64,42.09A33.22,33.22,0,0,1,112.8,2.3a5.15,5.15,0,0,1,1.77,8.44L100.34,25a.47.47,0,0,0-.14.33.45.45,0,0,0,.14.33l7.94,7.94a.45.45,0,0,0,.66,0l14.23-14.23a5.15,5.15,0,0,1,8.44,1.77,33.24,33.24,0,0,1-39.8,44.17L65.26,91.83A33.22,33.22,0,0,1,21.1,131.62a5.16,5.16,0,0,1-1.76-8.44l14.23-14.24a.45.45,0,0,0,.14-.32.45.45,0,0,0-.14-.33l-7.95-8a.46.46,0,0,0-.65,0L10.74,114.57a5.15,5.15,0,0,1-8.45-1.76A33.25,33.25,0,0,1,42.1,68.63"/></g></g></svg>